{"title":"G-Force (PC,Ipod)","uid":5188856,"size":489586801,"categoryP":"video","categoryS":"movies","magnet":"?xt=urn:btih:c6c0d155e38c9d95d289f5a4b7485e7da17b43d2&amp;dn=G-Force+%28PC%2CIpod%29&amp;tr=udp%3A%2F%2Ftracker.openbittorrent.com%3A80&amp;tr=udp%3A%2F%2Fopen.demonii.com%3A1337&amp;tr=udp%3A%2F%2Ftracker.coppersurfer.tk%3A6969&amp;tr=udp%3A%2F%2Fexodus.desync.com%3A6969","seeders":0,"leechers":1,"uploader":"dakin1993","files":2,"time":1259591727,"description":"General\n      Complete name : G-Force (PC,Ipod)\n      Format : MPEG-4\n      Codec ID : M4V \n      File size : 467 MiB\n      Duration : 1h 28mn\n      Overall bit rate : 739 Kbps\n      Encoded date : UTC 2009-11-28 11:40:35\n      Tagged date : UTC 2009-11-28 11:40:35\n   Video #1\n      Format : AVC\n      Format/Info : Advanced Video Codec\n      Format profile : &lt;a class=&quot;__cf_email__&quot; href=&quot;/cdn-cgi/l/email-protection&quot; data-cfemail=&quot;36745745535a5f5853767a071805&quot;&gt;[email&amp;#160;protected]&lt;/a&gt;&lt;script cf-hash='f9e31' type=&quot;text/javascript&quot;&gt;\n/* &lt;![CDATA[ */!function(){try{var t=&quot;currentScript&quot;in document?document.currentScript:function(){for(var t=document.getElementsByTagName(&quot;script&quot;),e=t.length;e--;)if(t[e].getAttribute(&quot;cf-hash&quot;))return t[e]}();if(t&amp;&amp;t.previousSibling){var e,r,n,i,c=t.previousSibling,a=c.getAttribute(&quot;data-cfemail&quot;);if(a){for(e=&quot;&quot;,r=parseInt(a.substr(0,2),16),n=2;a.length-n;n+=2)i=parseInt(a.substr(n,2),16)^r,e+=String.fromCharCode(i);e=document.createTextNode(e),c.parentNode.replaceChild(e,c)}}}catch(u){}}();/* ]]&gt; */&lt;/script&gt;\n      Format settings, CABAC : No\n      Format settings, ReFrames : 1 frame\n      Codec ID : avc1\n      Codec ID/Info : Advanced Video Coding\n      Duration : 1h 28mn\n      Bit rate mode : Variable\n      Bit rate : 642 Kbps\n      Width : 320 pixels\n      Height : 240 pixels\n      Display aspect ratio : 4/3\n      Frame rate mode : Constant\n      Frame rate : 30.000 fps\n      Resolution : 24 bits\n      Colorimetry : 4:2:0\n      Scan type : Progressive\n      Bits/(Pixel*Frame) : 0.278\n      Stream size : 405 MiB (87%)\n      Encoded date : UTC 2009-11-28 11:40:35\n      Tagged date : UTC 2009-11-28 11:40:35\n   Audio #2\n      Format : AAC\n      Format/Info : Advanced Audio Codec\n      Format version : Version 4\n      Format profile : LC\n      Format settings, SBR : No\n      Codec ID : 40\n      Duration : 1h 28mn\n      Bit rate mode : Variable\n      Bit rate : 93.4 Kbps\n      Maximum bit rate : 96.0 Kbps\n      Channel(s) : 2 channels\n      Channel positions : L R\n      Sampling rate : 48.0 KHz\n      Resolution : 16 bits\n      Stream size : 59.0 MiB (13%)\n      Encoded date : UTC 2009-11-28 11:40:35\n      Tagged date : UTC 2009-11-28 11:40:35","torrent":{"xt":"urn:btih:c6c0d155e38c9d95d289f5a4b7485e7da17b43d2","amp;dn":"G-Force+%28PC%2CIpod%29","amp;tr":["udp%3A%2F%2Ftracker.openbittorrent.com%3A80","udp%3A%2F%2Fopen.demonii.com%3A1337","udp%3A%2F%2Ftracker.coppersurfer.tk%3A6969","udp%3A%2F%2Fexodus.desync.com%3A6969"],"infoHash":"c6c0d155e38c9d95d289f5a4b7485e7da17b43d2","infoHashBuffer":{"type":"Buffer","data":[198,192,209,85,227,140,157,149,210,137,245,164,183,72,94,125,161,123,67,210]},"announce":[],"urlList":[]}}